<svg width="100" height="100" viewBox="0 0 500 500" xmlns="http://www.w3.org/2000/svg">
  <defs>
    <linearGradient id="blueGradient" x1="0%" y1="0%" x2="100%" y2="100%">
      <stop offset="0%" style="stop-color:#1E88E5;stop-opacity:1" />
      <stop offset="50%" style="stop-color:#2196F3;stop-opacity:1" />
      <stop offset="100%" style="stop-color:#03A9F4;stop-opacity:1" />
    </linearGradient>
    <linearGradient id="darkBlueGradient" x1="0%" y1="0%" x2="100%" y2="100%">
      <stop offset="0%" style="stop-color:#0D47A1;stop-opacity:1" />
      <stop offset="100%" style="stop-color:#1565C0;stop-opacity:1" />
    </linearGradient>
  </defs>
  
  <!-- Main blue shape -->
  <path d="M100 200 Q100 150 150 150 L350 25 Q400 25 400 75 L400 200 Q400 250 350 250 L200 375 Q150 375 150 325 L150 300 Q150 250 200 250 L300 150 L200 200 Q100 200 100 200 Z" fill="url(#blueGradient)"/>
  
  <!-- Dark blue accent -->
  <path d="M350 25 L400 75 L400 200 Q400 250 350 250 L350 150 Q350 100 400 100 L400 75 Q400 25 350 25 Z" fill="url(#darkBlueGradient)"/>
  
  <!-- Bottom accent -->
  <path d="M150 325 L200 375 Q150 375 150 325 L150 300 L200 250 L300 350 L200 400 Q150 400 150 350 L150 325 Z" fill="url(#darkBlueGradient)"/>
</svg>
